<?xml version="1.0" standalone="no"?>
<!DOCTYPE svg PUBLIC "-//W3C//DTD SVG 20010904//EN"
 "http://www.w3.org/TR/2001/REC-SVG-20010904/DTD/svg10.dtd">
<svg version="1.0" xmlns="http://www.w3.org/2000/svg"
 width="1500.000000pt" height="1500.000000pt" viewBox="0 0 1500.000000 1500.000000"
 preserveAspectRatio="xMidYMid meet">

<g transform="translate(0.000000,1500.000000) scale(0.100000,-0.100000)"
fill="#000000" stroke="none">
<path d="M9360 8780 c0 -7 -905 -10 -2695 -10 l-2695 0 0 -1255 0 -1255 2709
0 c2382 0 2710 2 2715 15 3 8 29 47 59 87 29 40 127 177 216 303 90 127 171
241 181 255 10 14 69 97 131 185 62 88 138 194 169 237 30 42 72 99 92 128
l37 51 -66 97 c-36 53 -69 99 -73 102 -4 3 -35 46 -69 95 -34 50 -94 136 -134
191 -40 56 -94 134 -122 174 -27 40 -65 93 -84 118 -19 26 -59 83 -90 127 -30
44 -58 82 -62 85 -6 4 -69 95 -164 235 -28 41 -55 58 -55 35z"/>
</g>
</svg>
